<?xml version="1.0" encoding="utf-8"?>
<!-- Generator: Adobe Illustrator 27.2.0, SVG Export Plug-In . SVG Version: 6.00 Build 0)  -->
<svg version="1.1" id="Layer_1" xmlns="http://www.w3.org/2000/svg" xmlns:xlink="http://www.w3.org/1999/xlink" x="0px" y="0px"
	 viewBox="0 0 350 707.5" style="enable-background:new 0 0 350 707.5;" xml:space="preserve">
<style type="text/css">
	.st0{fill:#FF7F0E;}
	.st1{opacity:0.75;fill:#0000FF;}
	.st2{opacity:0.25;fill:#CCCCCC;}
	.st3{fill:none;stroke:#CCCCCC;}
	.st4{fill:#0000FF;}
	.st5{opacity:0.75;fill:#FF7F0E;}
	.st6{font-family:'Arial-BoldMT';}
	.st7{font-size:20px;}
	.st8{font-family:'ArialMT';}
	.st9{font-size:14px;}
	.st10{fill:#FFFFFF;}
	.st11{font-family:'Arial-ItalicMT';}
	.st12{font-size:20.0544px;}
	.st13{font-size:12px;}
</style>
<rect x="30.1" y="89.9" class="st0" width="99" height="13.1"/>
<rect x="13.6" y="71.7" class="st1" width="72.7" height="14.5"/>
<rect x="90.5" y="-203.9" class="st2" width="279" height="109.9"/>
<rect x="-53.7" y="-364.4" class="st0" width="120.9" height="17.5"/>
<rect x="324.3" y="-383.9" class="st1" width="89.1" height="18.1"/>
<rect x="39.7" y="-302.8" class="st1" width="11.7" height="11.7"/>
<rect x="39.7" y="-264.8" class="st1" width="11.7" height="11.7"/>
<rect x="52.4" y="-264.8" class="st1" width="11.7" height="11.7"/>
<rect x="77.8" y="-252.1" class="st1" width="11.7" height="11.7"/>
<rect x="90.5" y="-264.8" class="st1" width="11.7" height="11.7"/>
<rect x="103.2" y="-290.2" class="st1" width="11.7" height="11.7"/>
<rect x="115.8" y="-226.7" class="st1" width="11.7" height="11.7"/>
<rect x="128.5" y="-264.8" class="st1" width="11.7" height="11.7"/>
<rect x="128.5" y="-226.7" class="st1" width="11.7" height="11.7"/>
<rect x="141.2" y="-277.5" class="st1" width="11.7" height="11.7"/>
<rect x="141.2" y="-264.8" class="st1" width="11.7" height="11.7"/>
<rect x="166.6" y="-302.8" class="st1" width="11.7" height="11.7"/>
<rect x="191.9" y="-264.8" class="st1" width="11.7" height="11.7"/>
<rect x="204.6" y="-264.8" class="st1" width="11.7" height="11.7"/>
<rect x="217.3" y="-264.8" class="st1" width="11.7" height="11.7"/>
<rect x="217.3" y="-252.1" class="st1" width="11.7" height="11.7"/>
<rect x="268" y="-302.8" class="st1" width="11.7" height="11.7"/>
<rect x="268" y="-290.2" class="st1" width="11.7" height="11.7"/>
<rect x="280.7" y="-302.8" class="st1" width="11.7" height="11.7"/>
<rect x="318.8" y="-302.8" class="st1" width="11.7" height="11.7"/>
<rect x="318.8" y="-252.1" class="st1" width="11.7" height="11.7"/>
<rect x="331.4" y="-302.8" class="st1" width="11.7" height="11.7"/>
<rect x="331.4" y="-290.2" class="st1" width="11.7" height="11.7"/>
<rect x="331.4" y="-252.1" class="st1" width="11.7" height="11.7"/>
<rect x="331.4" y="-239.4" class="st1" width="11.7" height="11.7"/>
<rect x="432.9" y="-290.2" class="st1" width="11.7" height="11.7"/>
<rect x="432.9" y="-264.8" class="st1" width="11.7" height="11.7"/>
<rect x="432.9" y="-252.1" class="st1" width="11.7" height="11.7"/>
<rect x="445.6" y="-277.5" class="st1" width="11.7" height="11.7"/>
<rect x="445.6" y="-252.1" class="st1" width="11.7" height="11.7"/>
<rect x="445.6" y="-226.7" class="st1" width="11.7" height="11.7"/>
<rect x="471" y="-302.8" class="st1" width="11.7" height="11.7"/>
<rect x="471" y="-290.2" class="st1" width="11.7" height="11.7"/>
<rect x="509" y="-290.2" class="st1" width="11.7" height="11.7"/>
<rect x="509" y="-277.5" class="st1" width="11.7" height="11.7"/>
<rect x="509" y="-264.8" class="st1" width="11.7" height="11.7"/>
<rect x="509" y="-252.1" class="st1" width="11.7" height="11.7"/>
<rect x="521.7" y="-277.5" class="st1" width="11.7" height="11.7"/>
<rect x="534.4" y="-302.8" class="st1" width="11.7" height="11.7"/>
<rect x="534.4" y="-290.2" class="st1" width="11.7" height="11.7"/>
<rect x="534.4" y="-277.5" class="st1" width="11.7" height="11.7"/>
<rect x="547" y="-264.8" class="st1" width="11.7" height="11.7"/>
<rect x="559.7" y="-264.8" class="st1" width="11.7" height="11.7"/>
<rect x="559.7" y="-252.1" class="st1" width="11.7" height="11.7"/>
<rect x="610.5" y="-252.1" class="st1" width="11.7" height="11.7"/>
<rect x="610.5" y="-239.4" class="st1" width="11.7" height="11.7"/>
<rect x="610.5" y="-226.7" class="st1" width="11.7" height="11.7"/>
<text transform="matrix(1 0 0 1 -70.1807 -306.3504)" class="st6" style="font-size:24.0847px;">2019</text>
<path class="st3" d="M90-303.3v38H77.3v50.7"/>
<text transform="matrix(1 0 0 1 38.8141 -306.1071)" class="st8 st13">Feb</text>
<path class="st3" d="M140.7-303.3v76.1h-12.7v12.7"/>
<text transform="matrix(1 0 0 1 89.5436 -306.1071)" class="st8 st13">Mar</text>
<path class="st3" d="M204.2-303.3v12.7h-12.7v76.1"/>
<text transform="matrix(1 0 0 1 142.6114 -306.1071)" class="st8 st13">Apr</text>
<path class="st3" d="M254.9-303.3v50.7h-12.7v38"/>
<text transform="matrix(1 0 0 1 203.6853 -306.1071)" class="st8 st13">May</text>
<path class="st3" d="M305.6-303.3v76.1h-12.7v12.7"/>
<text transform="matrix(1 0 0 1 254.4148 -305.9631)" class="st8 st13">Jun</text>
<path class="st3" d="M369-303.3v25.4h-12.7v63.4"/>
<text transform="matrix(1 0 0 1 305.6121 -305.8191)" class="st8 st13">Jul</text>
<path class="st3" d="M419.8-303.3v63.4h-12.7v25.4"/>
<text transform="matrix(1 0 0 1 369.4915 -306.1071)" class="st8 st13">Aug</text>
<path class="st3" d="M470.5-303.3v88.8"/>
<text transform="matrix(1 0 0 1 419.7533 -305.675)" class="st8 st13">Sep</text>
<path class="st3" d="M533.9-303.3v38h-12.7v50.7"/>
<text transform="matrix(1 0 0 1 470.015 -306.1071)" class="st8 st13">Oct</text>
<path class="st3" d="M584.6-303.3v63.4h-12.7v25.4"/>
<text transform="matrix(1 0 0 1 534.3623 -305.675)" class="st8 st13">Nov</text>
<rect x="1.7" y="-109.9" class="st1" width="11.7" height="11.7"/>
<rect x="14.4" y="-186" class="st1" width="11.7" height="11.7"/>
<rect x="14.4" y="-160.6" class="st1" width="11.7" height="11.7"/>
<rect x="14.4" y="-147.9" class="st1" width="11.7" height="11.7"/>
<rect x="27.1" y="-147.9" class="st1" width="11.7" height="11.7"/>
<rect x="39.7" y="-186" class="st1" width="11.7" height="11.7"/>
<rect x="39.7" y="-173.3" class="st1" width="11.7" height="11.7"/>
<rect x="52.4" y="-160.6" class="st1" width="11.7" height="11.7"/>
<rect x="52.4" y="-147.9" class="st1" width="11.7" height="11.7"/>
<rect x="52.4" y="-135.3" class="st1" width="11.7" height="11.7"/>
<rect x="52.4" y="-122.6" class="st1" width="11.7" height="11.7"/>
<rect x="65.1" y="-173.3" class="st1" width="11.7" height="11.7"/>
<rect x="153.9" y="-160.6" class="st4" width="11.7" height="11.7"/>
<rect x="179.3" y="-160.6" class="st4" width="11.7" height="11.7"/>
<rect x="204.6" y="-173.3" class="st4" width="11.7" height="11.7"/>
<rect x="242.7" y="-173.3" class="st4" width="11.7" height="11.7"/>
<rect x="280.7" y="-173.3" class="st4" width="11.7" height="11.7"/>
<rect x="280.7" y="-147.9" class="st4" width="11.7" height="11.7"/>
<rect x="306.1" y="-186" class="st4" width="11.7" height="11.7"/>
<rect x="306.1" y="-173.3" class="st4" width="11.7" height="11.7"/>
<rect x="344.1" y="-160.6" class="st4" width="11.7" height="11.7"/>
<rect x="420.2" y="-173.3" class="st1" width="11.7" height="11.7"/>
<rect x="420.2" y="-160.6" class="st1" width="11.7" height="11.7"/>
<rect x="420.2" y="-147.9" class="st1" width="11.7" height="11.7"/>
<rect x="432.9" y="-173.3" class="st1" width="11.7" height="11.7"/>
<rect x="432.9" y="-160.6" class="st1" width="11.7" height="11.7"/>
<rect x="432.9" y="-147.9" class="st1" width="11.7" height="11.7"/>
<rect x="445.6" y="-160.6" class="st1" width="11.7" height="11.7"/>
<rect x="445.6" y="-135.3" class="st1" width="11.7" height="11.7"/>
<rect x="458.3" y="-173.3" class="st1" width="11.7" height="11.7"/>
<rect x="458.3" y="-160.6" class="st1" width="11.7" height="11.7"/>
<rect x="471" y="-186" class="st1" width="11.7" height="11.7"/>
<rect x="471" y="-173.3" class="st1" width="11.7" height="11.7"/>
<rect x="471" y="-160.6" class="st1" width="11.7" height="11.7"/>
<rect x="471" y="-135.3" class="st1" width="11.7" height="11.7"/>
<rect x="483.6" y="-173.3" class="st1" width="11.7" height="11.7"/>
<rect x="483.6" y="-160.6" class="st1" width="11.7" height="11.7"/>
<rect x="509" y="-173.3" class="st1" width="11.7" height="11.7"/>
<rect x="509" y="-135.3" class="st1" width="11.7" height="11.7"/>
<rect x="534.4" y="-173.3" class="st1" width="11.7" height="11.7"/>
<rect x="534.4" y="-147.9" class="st1" width="11.7" height="11.7"/>
<rect x="547" y="-186" class="st1" width="11.7" height="11.7"/>
<rect x="585.1" y="-135.3" class="st1" width="11.7" height="11.7"/>
<rect x="597.8" y="-173.3" class="st1" width="11.7" height="11.7"/>
<rect x="103.2" y="-173.3" class="st0" width="11.7" height="11.7"/>
<rect x="115.8" y="-173.3" class="st0" width="11.7" height="11.7"/>
<rect x="166.6" y="-147.9" class="st0" width="11.7" height="11.7"/>
<rect x="179.3" y="-147.9" class="st0" width="11.7" height="11.7"/>
<rect x="179.3" y="-135.3" class="st0" width="11.7" height="11.7"/>
<rect x="191.9" y="-160.6" class="st5" width="11.7" height="11.7"/>
<rect x="191.9" y="-147.9" class="st0" width="11.7" height="11.7"/>
<rect x="204.6" y="-160.6" class="st0" width="11.7" height="11.7"/>
<rect x="217.3" y="-160.6" class="st0" width="11.7" height="11.7"/>
<rect x="217.3" y="-147.9" class="st0" width="11.7" height="11.7"/>
<rect x="230" y="-186" class="st0" width="11.7" height="11.7"/>
<rect x="230" y="-173.3" class="st0" width="11.7" height="11.7"/>
<rect x="280.7" y="-135.3" class="st0" width="11.7" height="11.7"/>
<rect x="318.8" y="-135.3" class="st0" width="11.7" height="11.7"/>
<rect x="344.1" y="-173.3" class="st0" width="11.7" height="11.7"/>
<rect x="496.3" y="-173.3" class="st5" width="11.7" height="11.7"/>
<rect x="521.7" y="-147.9" class="st5" width="11.7" height="11.7"/>
<rect x="521.7" y="-135.3" class="st5" width="11.7" height="11.7"/>
<rect x="534.4" y="-135.3" class="st5" width="11.7" height="11.7"/>
<rect x="547" y="-173.3" class="st5" width="11.7" height="11.7"/>
<rect x="559.7" y="-173.3" class="st5" width="11.7" height="11.7"/>
<rect x="559.7" y="-147.9" class="st5" width="11.7" height="11.7"/>
<rect x="559.7" y="-135.3" class="st5" width="11.7" height="11.7"/>
<rect x="585.1" y="-173.3" class="st5" width="11.7" height="11.7"/>
<rect x="585.1" y="-160.6" class="st5" width="11.7" height="11.7"/>
<rect x="597.8" y="-122.6" class="st5" width="11.7" height="11.7"/>
<rect x="610.5" y="-147.9" class="st5" width="11.7" height="11.7"/>
<rect x="610.5" y="-109.9" class="st5" width="11.7" height="11.7"/>
<rect x="623.1" y="-186" class="st5" width="11.7" height="11.7"/>
<text transform="matrix(1 0 0 1 -72.337 -181.2039)" class="st6" style="font-size:24.8373px;">2020</text>
<path class="st3" d="M39.3-186.5v50.7H26.6v38"/>
<text transform="matrix(1 0 0 1 -15.7414 -189.2692)" class="st8 st13">Jan</text>
<path class="st3" d="M90-186.5v63.4H77.3v25.4"/>
<text transform="matrix(1 0 0 1 39.7978 -189.2692)" class="st8 st13">Feb</text>
<path class="st3" d="M153.4-186.5v12.7h-12.7v76.1"/>
<text transform="matrix(1 0 0 1 90.479 -189.2692)" class="st8 st13">Mar</text>
<path class="st3" d="M204.2-186.5v38h-12.7v50.7"/>
<text transform="matrix(1 0 0 1 153.4236 -189.1242)" class="st8 st13">Apr</text>
<path class="st3" d="M254.9-186.5v76.1h-12.7v12.7"/>
<text transform="matrix(1 0 0 1 204.6208 -189.2692)" class="st8 st13">May</text>
<path class="st3" d="M318.3-186.5v12.7h-12.7v76.1"/>
<text transform="matrix(1 0 0 1 254.8825 -188.6922)" class="st8 st13">Jun</text>
<path class="st3" d="M369-186.5v50.7h-12.7v38"/>
<text transform="matrix(1 0 0 1 306.0797 -189.1242)" class="st8 st13">Jul</text>
<path class="st3" d="M419.8-186.5v88.8"/>
<text transform="matrix(1 0 0 1 369.0238 -189.2692)" class="st8 st13">Aug</text>
<path class="st3" d="M483.2-186.5v25.4h-12.7v63.4"/>
<text transform="matrix(1 0 0 1 420.3053 -189.2692)" class="st8 st13">Sep</text>
<path class="st3" d="M533.9-186.5v63.4h-12.7v25.4"/>
<text transform="matrix(1 0 0 1 482.6967 -188.5482)" class="st8 st13">Oct</text>
<path class="st3" d="M584.6-186.5v88.8"/>
<text transform="matrix(1 0 0 1 534.3384 -188.6921)" class="st8 st13">Nov</text>
<text transform="matrix(1 0 0 1 584.6234 -305.5432)" class="st8 st13">Dec</text>
<text transform="matrix(1 0 0 1 -72.4088 -390.0324)"><tspan x="0" y="0" class="st6" style="font-size:24px;">Working from l’Élysée</tspan><tspan x="252.1" y="0" class="st6" style="font-size:17px;"> </tspan><tspan x="0" y="20.4" class="st8" style="font-size:17px;">During the early months of the COVID-19 pandemic,</tspan><tspan x="394" y="20.4" class="st8" style="font-size:17px;"> </tspan><tspan x="398.7" y="20.4" class="st10 st8" style="font-size:17px;">official trips</tspan><tspan x="483.8" y="20.4" class="st8" style="font-size:17px;"> </tspan><tspan x="488.5" y="20.4" class="st8" style="font-size:17px;">came to a halt and gave way </tspan><tspan x="0" y="40.8" class="st8" style="font-size:17px;">to </tspan><tspan x="18.9" y="40.8" class="st10 st8" style="font-size:17px;">virtual meetings</tspan><tspan x="138" y="40.8" class="st8" style="font-size:17px;"> (les </tspan><tspan x="174.8" y="40.8" class="st11" style="font-size:17px;">visioconférences</tspan><tspan x="301.4" y="40.8" class="st8" style="font-size:17px;">).</tspan></text>
<text transform="matrix(1 0 0 1 585.5474 -188.4044)" class="st8 st13">Dec</text>
<text transform="matrix(1 0 0 1 14.3853 49.6636)"><tspan x="0" y="0" class="st6 st7">Working from l’Élysée </tspan><tspan x="0" y="16.8" class="st8 st9">During the early months of the COVID-19 pandemic,</tspan><tspan x="0" y="33.6" class="st10 st8 st9">official trips</tspan><tspan x="70" y="33.6" class="st8 st9"> </tspan><tspan x="73.9" y="33.6" class="st8 st9">came to a halt and gave way </tspan><tspan x="0" y="50.4" class="st8 st9">to </tspan><tspan x="15.6" y="50.4" class="st10 st8 st9">virtual meetings</tspan><tspan x="113.6" y="50.4" class="st8 st9"> (les </tspan><tspan x="143.9" y="50.4" class="st11 st9">visioconférences</tspan><tspan x="248.2" y="50.4" class="st8 st9">).</tspan></text>
<rect x="98.6" y="173.4" class="st1" width="9.5" height="9.5"/>
<rect x="98.6" y="204.2" class="st1" width="9.5" height="9.5"/>
<rect x="108.9" y="204.2" class="st1" width="9.5" height="9.5"/>
<rect x="129.4" y="214.4" class="st1" width="9.5" height="9.5"/>
<rect x="139.7" y="204.2" class="st1" width="9.5" height="9.5"/>
<rect x="149.9" y="183.6" class="st1" width="9.5" height="9.5"/>
<rect x="160.2" y="234.9" class="st1" width="9.5" height="9.5"/>
<rect x="170.4" y="204.2" class="st1" width="9.5" height="9.5"/>
<rect x="170.4" y="234.9" class="st1" width="9.5" height="9.5"/>
<rect x="180.7" y="193.9" class="st1" width="9.5" height="9.5"/>
<rect x="180.7" y="204.2" class="st1" width="9.5" height="9.5"/>
<rect x="201.2" y="173.4" class="st1" width="9.5" height="9.5"/>
<rect x="221.8" y="204.2" class="st1" width="9.5" height="9.5"/>
<rect x="232" y="204.2" class="st1" width="9.5" height="9.5"/>
<rect x="242.3" y="204.2" class="st1" width="9.5" height="9.5"/>
<rect x="242.3" y="214.4" class="st1" width="9.5" height="9.5"/>
<rect x="283.3" y="173.4" class="st1" width="9.5" height="9.5"/>
<rect x="283.3" y="183.6" class="st1" width="9.5" height="9.5"/>
<rect x="293.6" y="173.4" class="st1" width="9.5" height="9.5"/>
<rect x="324.4" y="173.4" class="st1" width="9.5" height="9.5"/>
<rect x="324.4" y="214.4" class="st1" width="9.5" height="9.5"/>
<rect x="334.6" y="173.4" class="st1" width="9.5" height="9.5"/>
<rect x="334.6" y="183.6" class="st1" width="9.5" height="9.5"/>
<rect x="334.6" y="214.4" class="st1" width="9.5" height="9.5"/>
<rect x="334.6" y="224.7" class="st1" width="9.5" height="9.5"/>
<text transform="matrix(1 0 0 1 11.9282 147.9371)" class="st6 st12">2019</text>
<path class="st3" d="M139.3,173v30.8H129v41"/>
<text transform="matrix(1 0 0 1 97.8657 170.7355)" class="st8 st13">Feb</text>
<path class="st3" d="M180.3,173v61.6h-10.3v10.3"/>
<text transform="matrix(1 0 0 1 138.9091 170.7355)" class="st8 st13">Mar</text>
<path class="st3" d="M231.6,173v10.3h-10.3v61.6"/>
<text transform="matrix(1 0 0 1 181.8447 170.7355)" class="st8 st13">Apr</text>
<path class="st3" d="M272.7,173v41h-10.3v30.8"/>
<text transform="matrix(1 0 0 1 231.2568 170.7355)" class="st8 st13">May</text>
<path class="st3" d="M313.7,173v61.6h-10.3v10.3"/>
<text transform="matrix(1 0 0 1 272.3008 170.8517)" class="st8 st13">Jun</text>
<text transform="matrix(1 0 0 1 313.7226 170.968)" class="st8 st13">Jul</text>
<rect x="137.9" y="269.6" class="st1" width="9.6" height="9.6"/>
<rect x="137.9" y="290.2" class="st1" width="9.6" height="9.6"/>
<rect x="137.9" y="300.5" class="st1" width="9.6" height="9.6"/>
<rect x="148.2" y="279.9" class="st1" width="9.6" height="9.6"/>
<rect x="148.2" y="300.5" class="st1" width="9.6" height="9.6"/>
<rect x="148.2" y="321.2" class="st1" width="9.6" height="9.6"/>
<rect x="168.8" y="259.3" class="st1" width="9.6" height="9.6"/>
<rect x="168.8" y="269.6" class="st1" width="9.6" height="9.6"/>
<rect x="199.7" y="269.6" class="st1" width="9.6" height="9.6"/>
<rect x="199.7" y="279.9" class="st1" width="9.6" height="9.6"/>
<rect x="199.7" y="290.2" class="st1" width="9.6" height="9.6"/>
<rect x="199.7" y="300.5" class="st1" width="9.6" height="9.6"/>
<rect x="210.1" y="279.9" class="st1" width="9.6" height="9.6"/>
<rect x="220.4" y="259.3" class="st1" width="9.6" height="9.6"/>
<rect x="220.4" y="269.6" class="st1" width="9.6" height="9.6"/>
<rect x="220.4" y="279.9" class="st1" width="9.6" height="9.6"/>
<rect x="230.7" y="290.2" class="st1" width="9.6" height="9.6"/>
<rect x="241" y="290.2" class="st1" width="9.6" height="9.6"/>
<rect x="241" y="300.5" class="st1" width="9.6" height="9.6"/>
<rect x="282.3" y="300.5" class="st1" width="9.6" height="9.6"/>
<rect x="282.3" y="310.8" class="st1" width="9.6" height="9.6"/>
<rect x="282.3" y="321.2" class="st1" width="9.6" height="9.6"/>
<path class="st3" d="M85.9,258.9v20.6H75.6v51.6"/>
<path class="st3" d="M127.2,258.9v51.6h-10.3v20.6"/>
<text transform="matrix(1 0 0 1 86.2924 256.6115)" class="st8 st13">Aug</text>
<path class="st3" d="M168.4,258.9v72.2"/>
<text transform="matrix(1 0 0 1 127.1693 256.963)" class="st8 st13">Sep</text>
<path class="st3" d="M220,258.9v30.9h-10.3v41.3"/>
<text transform="matrix(1 0 0 1 168.0463 256.6115)" class="st8 st13">Oct</text>
<path class="st3" d="M261.3,258.9v51.6h-10.3v20.6"/>
<text transform="matrix(1 0 0 1 220.3783 256.963)" class="st8 st13">Nov</text>
<text transform="matrix(1 0 0 1 261.2543 257.0705)" class="st8 st13">Dec</text>
<rect x="121.4" y="369.4" class="st2" width="221.2" height="87.1"/>
<rect x="51" y="443.9" class="st1" width="9.3" height="9.3"/>
<rect x="61.1" y="383.5" class="st1" width="9.3" height="9.3"/>
<rect x="61.1" y="403.7" class="st1" width="9.3" height="9.3"/>
<rect x="61.1" y="413.7" class="st1" width="9.3" height="9.3"/>
<rect x="71.1" y="413.7" class="st1" width="9.3" height="9.3"/>
<rect x="81.2" y="383.5" class="st1" width="9.3" height="9.3"/>
<rect x="81.2" y="393.6" class="st1" width="9.3" height="9.3"/>
<rect x="91.2" y="403.7" class="st1" width="9.3" height="9.3"/>
<rect x="91.2" y="413.7" class="st1" width="9.3" height="9.3"/>
<rect x="91.2" y="423.8" class="st1" width="9.3" height="9.3"/>
<rect x="91.2" y="433.8" class="st1" width="9.3" height="9.3"/>
<rect x="101.3" y="393.6" class="st1" width="9.3" height="9.3"/>
<rect x="171.6" y="403.7" class="st4" width="9.3" height="9.3"/>
<rect x="191.7" y="403.7" class="st4" width="9.3" height="9.3"/>
<rect x="211.8" y="393.6" class="st4" width="9.3" height="9.3"/>
<rect x="242" y="393.6" class="st4" width="9.3" height="9.3"/>
<rect x="272.2" y="393.6" class="st4" width="9.3" height="9.3"/>
<rect x="272.2" y="413.7" class="st4" width="9.3" height="9.3"/>
<rect x="292.3" y="383.5" class="st4" width="9.3" height="9.3"/>
<rect x="292.3" y="393.6" class="st4" width="9.3" height="9.3"/>
<rect x="322.4" y="403.7" class="st4" width="9.3" height="9.3"/>
<rect x="131.4" y="393.6" class="st0" width="9.3" height="9.3"/>
<rect x="141.5" y="393.6" class="st0" width="9.3" height="9.3"/>
<rect x="181.7" y="413.7" class="st0" width="9.3" height="9.3"/>
<rect x="191.7" y="413.7" class="st0" width="9.3" height="9.3"/>
<rect x="191.7" y="423.8" class="st0" width="9.3" height="9.3"/>
<rect x="201.8" y="403.7" class="st5" width="9.3" height="9.3"/>
<rect x="201.8" y="413.7" class="st0" width="9.3" height="9.3"/>
<rect x="211.8" y="403.7" class="st0" width="9.3" height="9.3"/>
<rect x="221.9" y="403.7" class="st0" width="9.3" height="9.3"/>
<rect x="221.9" y="413.7" class="st0" width="9.3" height="9.3"/>
<rect x="232" y="383.5" class="st0" width="9.3" height="9.3"/>
<rect x="232" y="393.6" class="st0" width="9.3" height="9.3"/>
<rect x="272.2" y="423.8" class="st0" width="9.3" height="9.3"/>
<rect x="302.3" y="423.8" class="st0" width="9.3" height="9.3"/>
<rect x="322.4" y="393.6" class="st0" width="9.3" height="9.3"/>
<path class="st3" d="M80.8,383.2v40.2H70.7v30.2"/>
<text transform="matrix(1 0 0 1 37.1783 380.9523)" class="st8 st13">Jan</text>
<path class="st3" d="M121,383.2v50.3H111v20.1"/>
<text transform="matrix(1 0 0 1 81.2018 380.9523)" class="st8 st13">Feb</text>
<path class="st3" d="M171.3,383.2v10.1h-10.1v60.3"/>
<text transform="matrix(1 0 0 1 121.3741 380.9523)" class="st8 st13">Mar</text>
<path class="st3" d="M231.6,383.2v30.2h-10.1v40.2"/>
<text transform="matrix(1 0 0 1 171.2682 381.0676)" class="st8 st13">Apr</text>
<path class="st3" d="M251.7,383.2v60.3h-10.1v10.1"/>
<text transform="matrix(1 0 0 1 211.8492 380.9523)" class="st8 st13">May</text>
<path class="st3" d="M302,383.2v10.1h-10.1v60.3"/>
<text transform="matrix(1 0 0 1 251.6891 381.4094)" class="st8 st13">Jun</text>
<path class="st3" d="M342.2,383.2v40.2h-10.1v30.2"/>
<text transform="matrix(1 0 0 1 292.2711 381.0676)" class="st8 st13">Jul</text>
<rect x="73" y="479.7" class="st1" width="9.8" height="9.8"/>
<rect x="73" y="490.3" class="st1" width="9.8" height="9.8"/>
<rect x="73" y="501" class="st1" width="9.8" height="9.8"/>
<rect x="83.6" y="479.7" class="st1" width="9.8" height="9.8"/>
<rect x="83.6" y="490.3" class="st1" width="9.8" height="9.8"/>
<rect x="83.6" y="501" class="st1" width="9.8" height="9.8"/>
<rect x="94.2" y="490.3" class="st1" width="9.8" height="9.8"/>
<rect x="94.2" y="511.6" class="st1" width="9.8" height="9.8"/>
<rect x="104.9" y="479.7" class="st1" width="9.8" height="9.8"/>
<rect x="104.9" y="490.3" class="st1" width="9.8" height="9.8"/>
<rect x="115.5" y="469.1" class="st1" width="9.8" height="9.8"/>
<rect x="115.5" y="479.7" class="st1" width="9.8" height="9.8"/>
<rect x="115.5" y="490.3" class="st1" width="9.8" height="9.8"/>
<rect x="115.5" y="511.6" class="st1" width="9.8" height="9.8"/>
<rect x="126.1" y="479.7" class="st1" width="9.8" height="9.8"/>
<rect x="126.1" y="490.3" class="st1" width="9.8" height="9.8"/>
<rect x="147.4" y="479.7" class="st1" width="9.8" height="9.8"/>
<rect x="147.4" y="511.6" class="st1" width="9.8" height="9.8"/>
<rect x="168.6" y="479.7" class="st1" width="9.8" height="9.8"/>
<rect x="168.6" y="501" class="st1" width="9.8" height="9.8"/>
<rect x="179.3" y="469.1" class="st1" width="9.8" height="9.8"/>
<rect x="211.2" y="511.6" class="st1" width="9.8" height="9.8"/>
<rect x="221.8" y="479.7" class="st1" width="9.8" height="9.8"/>
<rect x="136.8" y="479.7" class="st5" width="9.8" height="9.8"/>
<rect x="158" y="501" class="st5" width="9.8" height="9.8"/>
<rect x="158" y="511.6" class="st5" width="9.8" height="9.8"/>
<rect x="168.6" y="511.6" class="st5" width="9.8" height="9.8"/>
<rect x="179.3" y="479.7" class="st5" width="9.8" height="9.8"/>
<rect x="189.9" y="479.7" class="st5" width="9.8" height="9.8"/>
<rect x="189.9" y="501" class="st5" width="9.8" height="9.8"/>
<rect x="189.9" y="511.6" class="st5" width="9.8" height="9.8"/>
<rect x="211.2" y="479.7" class="st5" width="9.8" height="9.8"/>
<rect x="211.2" y="490.3" class="st5" width="9.8" height="9.8"/>
<rect x="221.8" y="522.2" class="st5" width="9.8" height="9.8"/>
<rect x="232.4" y="501" class="st5" width="9.8" height="9.8"/>
<rect x="232.4" y="532.9" class="st5" width="9.8" height="9.8"/>
<rect x="243" y="469.1" class="st5" width="9.8" height="9.8"/>
<path class="st3" d="M72.6,468.7v74.4"/>
<text transform="matrix(1 0 0 1 30.0664 466.3282)" class="st8 st13">Aug</text>
<path class="st3" d="M125.7,468.7v21.3h-10.6v53.1"/>
<text transform="matrix(1 0 0 1 73.0469 466.3282)" class="st8 st13">Sep</text>
<path class="st3" d="M168.2,468.7v53.1h-10.6v21.3"/>
<text transform="matrix(1 0 0 1 125.3388 466.9327)" class="st8 st13">Oct</text>
<path class="st3" d="M210.8,468.7v74.4"/>
<text transform="matrix(1 0 0 1 168.6211 466.8116)" class="st8 st13">Nov</text>
<text transform="matrix(1 0 0 1 211.541 467.0528)" class="st8 st13">Dec</text>
<text transform="matrix(1 0 0 1 11.928 357.5828)" class="st6 st12">2020</text>
</svg>
